<?xml version="1.0" standalone="no"?>
<!DOCTYPE svg PUBLIC "-//W3C//DTD SVG 20010904//EN"
 "http://www.w3.org/TR/2001/REC-SVG-20010904/DTD/svg10.dtd">
<svg version="1.0" xmlns="http://www.w3.org/2000/svg"
 width="512.000000pt" height="512.000000pt" viewBox="0 0 512.000000 512.000000"
 preserveAspectRatio="xMidYMid meet">
<metadata>
Created by potrace 1.15, written by Peter Selinger 2001-2017
</metadata>
<g transform="translate(0.000000,512.000000) scale(0.100000,-0.100000)"
fill="#000000" stroke="none">
<path d="M203 4958 c-174 -172 -196 -198 -191 -231 3 -19 32 5 192 163 103
102 192 193 197 203 8 14 5 17 -17 17 -21 0 -60 -33 -181 -152z"/>
<path d="M303 4858 c-140 -139 -264 -265 -275 -281 -10 -15 -18 -37 -16 -50 3
-18 49 23 292 263 158 157 292 293 297 303 8 14 5 17 -17 17 -22 0 -75 -47
-281 -252z"/>
<path d="M402 4758 c-194 -194 -362 -365 -373 -381 -11 -15 -19 -37 -17 -50 4
-18 67 40 392 363 213 212 392 393 397 403 8 14 5 17 -18 17 -22 0 -89 -62
-381 -352z"/>
<path d="M502 4658 c-249 -249 -462 -465 -473 -481 -11 -15 -19 -37 -17 -50 4
-18 84 57 492 463 268 267 492 493 497 503 8 14 5 17 -18 17 -22 0 -104 -76
-481 -452z"/>
<path d="M602 4558 c-304 -304 -562 -565 -573 -581 -11 -15 -19 -37 -17 -50 4
-18 101 75 592 563 323 322 592 593 597 603 8 14 5 17 -18 17 -23 0 -118 -91
-581 -552z"/>
<path d="M702 4458 c-359 -359 -662 -665 -673 -681 -11 -15 -19 -37 -17 -50 4
-18 118 92 692 663 378 377 692 693 697 703 8 14 5 17 -18 17 -23 0 -133 -106
-681 -652z"/>
<path d="M802 4358 c-414 -414 -762 -765 -773 -781 -11 -15 -19 -37 -17 -50 4
-18 136 109 792 763 433 432 792 793 797 803 8 14 5 17 -18 17 -23 0 -148
-120 -781 -752z"/>
<path d="M902 4258 c-469 -469 -862 -865 -873 -881 -11 -15 -19 -37 -17 -50 4
-18 153 126 892 863 488 487 892 893 897 903 8 14 5 17 -18 17 -23 0 -162
-135 -881 -852z"/>
<path d="M1002 4158 c-524 -524 -962 -965 -973 -981 -11 -15 -19 -37 -17 -50
4 -18 170 144 992 963 543 542 992 993 997 1003 8 14 5 17 -18 17 -23 0 -177
-149 -981 -952z"/>
<path d="M1102 4058 c-579 -579 -1062 -1065 -1073 -1081 -11 -15 -19 -37 -17
-50 4 -18 188 161 1092 1063 598 597 1092 1093 1097 1103 8 14 5 17 -18 17
-23 0 -191 -164 -1081 -1052z"/>
<path d="M1202 3958 c-634 -634 -1162 -1165 -1173 -1181 -11 -15 -19 -37 -17
-50 4 -18 205 178 1192 1163 653 652 1192 1193 1197 1203 8 14 5 17 -18 17
-23 0 -206 -178 -1181 -1152z"/>
<path d="M1775 4333 c-429 -428 -806 -796 -837 -817 -74 -50 -188 -165 -244
-247 -25 -35 -189 -208 -364 -385 -261 -261 -320 -325 -320 -347 0 -15 3 -27
7 -27 4 0 132 124 284 276 l277 276 -27 -91 -27 -91 -257 -259 c-207 -208
-257 -263 -257 -284 0 -15 3 -27 7 -27 4 0 116 109 250 242 l243 242 0 -64 0
-64 -250 -251 c-201 -203 -250 -257 -250 -278 0 -15 3 -27 7 -27 4 0 116 109
249 241 l242 242 7 -57 8 -58 -257 -257 c-208 -210 -256 -263 -256 -285 0 -22
3 -25 18 -17 9 5 127 120 262 255 l245 246 16 -47 15 -48 -278 -281 c-227
-229 -278 -285 -278 -308 0 -22 3 -25 18 -17 9 5 138 131 287 280 l270 271 22
-43 21 -42 -309 -311 c-253 -254 -309 -315 -309 -338 0 -22 3 -25 18 -17 9 5
152 145 317 310 165 166 303 301 306 301 4 0 17 -16 29 -37 l21 -36 -345 -347
c-285 -285 -346 -351 -346 -373 0 -23 3 -26 18 -18 9 5 172 165 361 354 l344
345 30 -35 30 -34 -391 -393 c-322 -322 -392 -397 -392 -419 0 -15 3 -27 7
-27 4 0 188 181 409 402 l403 401 34 -29 35 -29 -444 -445 c-366 -368 -444
-451 -444 -473 0 -15 3 -27 7 -27 4 0 213 205 464 456 l456 455 36 -21 c20
-12 37 -25 37 -28 0 -4 -225 -232 -500 -507 -414 -414 -500 -506 -500 -528 0
-15 3 -27 7 -27 4 0 240 232 524 517 l517 516 34 -13 c18 -7 37 -17 43 -22 5
-5 -217 -235 -558 -576 -470 -471 -567 -572 -567 -595 0 -15 3 -27 7 -27 4 0
272 264 594 587 l587 586 46 -13 c25 -7 46 -15 46 -19 0 -3 -288 -294 -640
-646 -532 -533 -640 -645 -640 -668 0 -15 3 -27 7 -27 4 0 307 299 673 665
l665 664 58 -6 59 -6 -731 -731 c-610 -610 -731 -736 -731 -759 0 -15 3 -27 7
-27 4 0 348 339 763 754 l755 754 70 6 70 7 -807 -808 c-445 -445 -808 -812
-808 -816 0 -4 12 -7 27 -7 23 0 162 135 848 820 l820 820 70 19 c39 11 79 23
90 27 11 4 -357 -371 -817 -832 -461 -462 -838 -843 -838 -847 0 -4 12 -7 27
-7 23 0 174 147 918 888 633 630 912 901 964 937 78 53 206 182 237 237 100
180 105 188 123 179 14 -8 102 75 509 482 388 388 490 495 480 505 -6 6 -17
12 -22 12 -6 0 -225 -214 -487 -476 l-477 -477 27 92 28 93 419 419 c398 398
418 420 401 436 -16 17 -37 -2 -412 -377 l-395 -395 0 65 0 65 225 225 c123
123 223 226 221 227 -2 2 -32 -13 -67 -34 -41 -24 -121 -93 -221 -191 l-157
-154 -6 38 c-10 67 -56 224 -86 298 l-29 71 384 385 c251 251 386 394 390 412
3 14 9 34 12 45 4 10 -178 -166 -403 -390 l-409 -408 -26 39 -25 40 894 893
c492 492 899 902 904 912 8 14 5 17 -18 17 -23 0 -168 -140 -919 -891 l-892
-892 -30 34 -31 34 849 850 c468 468 850 854 850 858 0 4 -12 7 -27 7 -23 0
-165 -138 -868 -840 l-841 -840 -32 33 -32 32 791 790 c435 435 795 798 800
808 8 14 5 17 -18 17 -23 0 -154 -126 -823 -794 l-795 -794 -38 26 -38 26 760
760 c419 419 761 765 761 769 0 4 -12 7 -27 7 -23 0 -153 -125 -784 -756
l-756 -755 -39 18 c-21 9 -41 19 -44 21 -2 1 323 330 723 730 400 400 727 731
727 735 0 4 -12 7 -27 7 -23 0 -148 -120 -753 -725 l-726 -725 -34 11 c-19 6
-42 13 -49 15 -10 3 240 259 687 707 386 386 702 706 702 710 0 4 -12 7 -27 7
-23 0 -145 -117 -733 -704 l-705 -704 -52 5 c-29 3 -53 8 -53 12 0 3 304 310
676 681 371 371 680 683 685 693 8 14 5 17 -18 17 -23 0 -139 -112 -723 -694
l-695 -694 -70 -6 -70 -7 693 693 c380 381 692 697 692 701 0 4 -12 7 -27 7
-23 0 -146 -119 -738 -710 -453 -453 -718 -710 -730 -710 -11 0 -51 -11 -89
-24 l-68 -23 726 726 c399 400 726 730 726 734 0 4 -12 7 -27 7 -23 0 -158
-130 -808 -777z"/>
<path d="M4023 4778 c-183 -182 -331 -333 -330 -335 2 -1 21 3 43 9 32 9 95
67 347 317 170 168 313 314 318 324 8 14 5 17 -18 17 -22 0 -86 -59 -360 -332z"/>
<path d="M4243 4798 c-306 -305 -313 -313 -282 -316 30 -3 51 15 331 295 165
164 304 306 309 316 8 14 5 17 -17 17 -23 0 -84 -56 -341 -312z"/>
<path d="M4428 4783 c-317 -317 -328 -328 -301 -335 26 -7 46 11 346 310 175
174 323 325 328 335 8 14 5 17 -18 17 -22 0 -85 -58 -355 -327z"/>
<path d="M4603 4758 c-194 -194 -353 -356 -353 -360 0 -3 10 -10 21 -13 18 -6
74 45 371 341 192 192 354 357 359 367 8 14 5 17 -18 17 -22 0 -89 -62 -380
-352z"/>
<path d="M4740 4693 c-357 -355 -374 -373 -357 -390 16 -17 33 -2 358 322 187
187 349 352 360 368 11 15 19 37 17 50 -4 18 -64 -38 -378 -350z"/>
<path d="M4788 4543 c-175 -175 -318 -323 -318 -329 0 -6 6 -16 13 -22 10 -9
83 58 325 301 254 255 312 318 312 340 0 15 -3 27 -7 27 -4 0 -150 -143 -325
-317z"/>
<path d="M4828 4380 c-267 -266 -286 -287 -277 -310 9 -23 22 -12 270 235 143
143 269 272 280 288 11 15 19 37 17 50 -4 18 -49 -23 -290 -263z"/>
<path d="M4854 4207 c-244 -241 -260 -260 -256 -289 4 -29 10 -24 244 208 132
132 248 251 259 267 11 15 19 37 17 50 -3 19 -45 -18 -264 -236z"/>
<path d="M4862 4015 c-234 -232 -252 -252 -252 -285 0 -34 4 -31 236 200 129
129 244 247 255 263 11 15 19 37 17 50 -3 19 -43 -17 -256 -228z"/>
<path d="M3855 4212 c-81 -38 -126 -124 -105 -202 14 -51 54 -98 104 -121 l40
-17 -40 -7 c-150 -28 -283 -166 -301 -314 l-6 -51 376 0 375 0 -5 43 c-10 72
-42 144 -90 197 -54 60 -114 97 -197 121 -34 10 -52 18 -40 18 61 2 134 97
134 173 0 120 -138 210 -245 160z"/>
<path d="M4836 3790 c-163 -162 -286 -291 -298 -315 -11 -22 -36 -62 -55 -90
-35 -50 578 553 618 608 11 15 19 37 17 50 -3 18 -47 -21 -282 -253z"/>
<path d="M4122 2875 c-546 -544 -992 -993 -992 -997 0 -4 10 -10 21 -13 19 -6
159 130 976 946 525 525 963 966 974 982 11 15 19 37 17 50 -4 18 -171 -145
-996 -968z"/>
<path d="M2900 3455 c-179 -179 -321 -325 -317 -325 5 0 43 22 85 50 56 35
145 117 320 293 227 227 243 246 240 276 -3 30 -13 22 -328 -294z"/>
<path d="M4182 2736 c-888 -887 -930 -930 -910 -944 19 -14 64 29 915 879 492
492 903 906 914 922 11 15 19 37 17 50 -4 18 -161 -134 -936 -907z"/>
<path d="M4369 2722 c-719 -717 -742 -742 -694 -727 46 13 96 61 728 692 373
373 687 690 698 706 11 15 19 37 17 50 -4 18 -128 -102 -749 -721z"/>
<path d="M4325 3228 c-22 -16 -58 -39 -80 -50 -25 -12 -260 -240 -637 -616
-329 -328 -598 -600 -598 -604 0 -4 8 -12 18 -17 16 -8 117 89 683 655 365
365 662 664 659 663 -3 0 -23 -14 -45 -31z"/>
<path d="M4488 2643 c-535 -535 -618 -622 -618 -647 0 -28 1 -29 20 -11 11 10
17 22 14 26 -3 5 3 9 13 9 11 0 259 241 611 593 492 492 592 597 592 620 0 15
-3 27 -7 27 -4 0 -286 -278 -625 -617z"/>
<path d="M3121 2676 c-387 -387 -489 -494 -479 -504 6 -6 17 -12 23 -12 5 0
232 222 503 493 472 472 492 494 469 504 -23 11 -50 -15 -516 -481z"/>
<path d="M3255 2610 c-474 -475 -499 -502 -480 -516 18 -14 47 14 527 493 280
279 508 511 508 515 0 5 -12 8 -28 8 -23 0 -109 -82 -527 -500z"/>
<path d="M3412 2567 c-420 -420 -530 -535 -520 -545 6 -6 17 -12 23 -12 5 0
255 245 555 545 526 526 544 545 510 545 -33 0 -67 -32 -568 -533z"/>
<path d="M4488 2440 c-379 -380 -618 -627 -618 -639 0 -14 -12 -22 -47 -30
-89 -23 -154 -120 -137 -206 9 -48 42 -95 88 -125 l38 -25 -36 -7 c-141 -30
-268 -170 -283 -314 l-6 -54 204 0 c158 0 200 -3 191 -12 -7 -7 -12 -23 -12
-37 0 -25 1 -24 38 12 37 36 40 37 112 37 l75 0 -113 -113 c-82 -82 -112 -119
-112 -137 0 -21 22 -3 138 113 l137 137 48 0 47 0 0 48 0 48 415 408 c229 225
427 424 441 442 15 20 24 42 22 56 -4 20 -46 -18 -291 -262 -180 -178 -287
-292 -287 -304 0 -11 -3 -16 -7 -12 -4 4 -75 -61 -158 -143 l-150 -151 -26 50
-26 49 449 442 c247 243 460 456 474 475 16 20 24 42 22 56 -4 20 -50 -22
-316 -287 -172 -170 -313 -314 -313 -320 -1 -5 -77 -84 -170 -174 l-167 -163
-41 33 -42 33 178 181 c98 99 181 179 184 178 3 -1 159 152 347 341 282 282
342 347 342 369 0 23 -3 26 -17 18 -10 -5 -170 -163 -357 -349 -230 -231 -336
-344 -331 -352 5 -8 4 -11 -2 -7 -5 3 -92 -77 -193 -178 l-183 -184 -36 14
c-20 8 -45 15 -55 17 -16 2 -14 7 16 27 19 13 45 40 58 60 14 20 266 277 562
571 458 455 539 539 538 563 0 24 -3 26 -19 18 -10 -6 -250 -245 -533 -531
l-515 -520 -13 45 c-7 25 -17 48 -22 51 -4 3 232 244 527 536 295 292 545 544
556 559 11 16 19 39 17 52 -4 18 -79 -53 -466 -437 -387 -386 -459 -462 -449
-475 10 -12 9 -13 -2 -7 -9 6 -43 -22 -115 -93 -90 -89 -104 -100 -115 -87 -8
9 -17 16 -22 16 -4 0 -20 5 -35 10 l-28 11 97 97 c54 54 94 101 90 106 -4 4
-1 5 7 1 10 -3 181 161 528 508 424 424 512 517 512 540 0 15 -3 27 -7 27 -5
0 -286 -279 -625 -620z"/>
<path d="M1455 1008 c-832 -833 -996 -1002 -978 -1006 13 -2 35 6 50 17 16 11
467 459 1003 996 973 974 992 994 935 995 -6 0 -460 -451 -1010 -1002z"/>
<path d="M1620 973 c-803 -804 -961 -967 -943 -971 13 -2 35 6 50 17 16 11
448 440 962 955 811 811 933 937 922 950 -8 9 -16 16 -20 16 -3 0 -440 -435
-971 -967z"/>
<path d="M1780 933 c-770 -771 -921 -927 -903 -931 13 -2 35 6 50 17 16 11
433 425 928 921 898 899 917 919 860 920 -6 0 -426 -417 -935 -927z"/>
<path d="M4185 936 c-509 -508 -925 -927 -925 -930 0 -3 12 -6 27 -6 22 0 86
59 350 322 177 177 321 323 320 325 -2 1 129 134 290 295 161 161 293 299 293
308 0 11 2 12 8 3 6 -9 98 78 290 270 229 230 282 289 282 310 0 15 -2 27 -5
27 -3 0 -422 -416 -930 -924z"/>
<path d="M1945 898 c-741 -742 -886 -892 -868 -896 13 -2 35 6 50 17 16 11
415 407 887 880 746 746 858 862 847 875 -8 9 -16 16 -20 16 -3 0 -407 -401
-896 -892z"/>
<path d="M2107 862 c-466 -466 -847 -851 -847 -855 0 -4 12 -7 27 -7 23 0 166
138 870 842 834 834 866 868 809 868 -6 0 -392 -381 -859 -848z"/>
<path d="M4785 1338 c-422 -427 -545 -550 -958 -958 -192 -190 -353 -353 -358
-362 -8 -15 -5 -18 18 -18 22 0 98 71 444 417 230 229 417 421 416 427 -1 6 3
10 9 9 6 -1 180 168 387 376 309 309 377 382 377 404 0 15 -3 27 -7 27 -5 0
-152 -145 -328 -322z"/>
<path d="M2272 827 c-447 -447 -812 -816 -812 -820 0 -4 12 -7 27 -7 23 0 160
132 830 802 442 442 803 806 803 810 0 4 -8 12 -18 17 -16 8 -137 -109 -830
-802z"/>
<path d="M2432 787 c-425 -425 -772 -776 -772 -780 0 -4 12 -7 27 -7 23 0 150
122 765 738 623 621 740 743 749 776 6 21 9 40 7 42 -2 2 -351 -344 -776 -769z"/>
<path d="M4396 750 c-394 -393 -722 -723 -727 -732 -8 -15 -5 -18 18 -18 23 0
137 110 711 683 376 375 692 694 703 710 11 15 19 37 17 50 -4 18 -124 -97
-722 -693z"/>
<path d="M2512 667 c-358 -359 -652 -656 -652 -660 0 -4 12 -7 27 -7 23 0 134
106 660 632 533 532 633 637 633 660 0 16 -3 28 -8 28 -4 0 -301 -294 -660
-653z"/>
<path d="M4496 650 c-339 -338 -622 -623 -627 -632 -8 -15 -5 -18 18 -18 23 0
123 95 611 583 321 320 592 594 603 610 11 15 19 37 17 50 -4 18 -106 -80
-622 -593z"/>
<path d="M2628 583 c-313 -313 -568 -572 -568 -576 0 -4 12 -7 27 -7 22 0 122
95 578 550 526 525 550 551 540 575 -10 25 -30 5 -577 -542z"/>
<path d="M4596 550 c-284 -283 -522 -523 -527 -533 -8 -14 -5 -17 18 -17 23 0
108 81 511 483 266 265 492 494 503 510 11 15 19 37 17 50 -4 18 -89 -62 -522
-493z"/>
<path d="M2754 508 c-417 -420 -495 -502 -477 -506 13 -2 35 6 50 17 16 11
237 229 492 484 441 442 463 466 449 485 -14 20 -36 -1 -514 -480z"/>
<path d="M2897 452 c-240 -241 -437 -441 -437 -445 0 -4 12 -7 27 -7 22 0 102
75 450 422 233 232 423 428 423 434 0 6 -6 16 -13 22 -10 9 -112 -88 -450
-426z"/>
<path d="M4696 450 c-229 -228 -422 -423 -427 -432 -8 -15 -5 -18 18 -18 22 0
93 66 411 383 211 210 392 394 403 410 11 15 19 37 17 50 -4 18 -72 -45 -422
-393z"/>
<path d="M3045 398 c-327 -329 -386 -392 -368 -396 13 -2 35 6 50 17 16 11
190 182 387 380 312 312 358 362 347 375 -8 9 -16 16 -20 16 -3 0 -182 -176
-396 -392z"/>
<path d="M3205 358 c-294 -296 -346 -352 -328 -356 13 -2 35 6 50 17 16 11
174 166 353 346 259 259 322 327 310 335 -8 5 -20 10 -25 10 -6 0 -168 -158
-360 -352z"/>
<path d="M3382 337 c-177 -177 -322 -326 -322 -330 0 -4 12 -7 27 -7 22 0 86
59 350 322 312 311 334 337 283 338 -9 0 -160 -145 -338 -323z"/>
<path d="M4796 350 c-174 -173 -322 -323 -327 -332 -8 -15 -5 -18 17 -18 23 0
80 52 312 282 156 156 293 295 303 311 11 15 19 37 17 50 -4 18 -54 -28 -322
-293z"/>
<path d="M4896 250 c-119 -118 -222 -223 -227 -232 -8 -15 -5 -18 17 -18 21 0
65 37 211 183 205 202 226 227 221 260 -3 19 -37 -11 -222 -193z"/>
<path d="M4996 150 c-136 -133 -149 -150 -111 -150 18 0 49 23 111 82 102 98
127 130 122 161 -3 19 -19 7 -122 -93z"/>
</g>
</svg>
